<svg xmlns="http://www.w3.org/2000/svg" xmlns:xlink="http://www.w3.org/1999/xlink" preserveAspectRatio="xMidYMid" width="160" height="160" viewBox="0 0 160 160">
  <defs>
    <style>
      .cls-1, .cls-3 {
        fill: #000;
      }

      .cls-2 {
        fill: #fff;
      }

      .cls-3 {
        fill-rule: evenodd;
      }
    </style>
  </defs>
  <circle cx="80" cy="80" r="80" class="cls-1"/>
  <rect x="33" y="77" width="50" height="50" rx="10" ry="10" class="cls-2"/>
  <rect x="40" y="84" width="36" height="36" rx="4" ry="4" class="cls-1"/>
  <rect x="51" y="33" width="76" height="76" rx="10" ry="10" class="cls-2"/>
  <path d="M114.915,79.997 C115.934,78.979 116.528,77.706 116.528,76.009 L116.528,52.421 C116.612,46.906 112.964,43.257 107.449,43.342 L83.861,43.342 C82.164,43.342 80.891,43.936 79.873,44.954 C77.412,47.415 77.242,52.336 79.788,54.882 C80.721,55.815 82.079,56.494 83.861,56.409 L94.127,56.324 L63.278,87.173 C57.593,92.858 67.012,102.276 72.696,96.591 L103.546,65.742 L103.461,76.009 C103.376,77.791 104.055,79.148 104.988,80.082 C107.533,82.627 112.455,82.458 114.915,79.997 Z" class="cls-3"/>
</svg>
