<svg xmlns="http://www.w3.org/2000/svg" xmlns:xlink="http://www.w3.org/1999/xlink" preserveAspectRatio="xMidYMid" width="160" height="160" viewBox="0 0 160 160">
  <defs>
    <style>
      .cls-1 {
        fill: #000;
      }

      .cls-2 {
        fill: #fff;
        fill-rule: evenodd;
      }
    </style>
  </defs>
  <circle cx="80" cy="80" r="80" class="cls-1"/>
  <path d="M66.976,66.060 C66.976,64.855 66.038,63.917 64.833,63.917 L60.547,63.917 C59.341,63.917 58.404,64.855 58.404,66.060 L58.404,104.635 C58.404,105.841 59.341,106.778 60.547,106.778 L64.833,106.778 C66.038,106.778 66.976,105.841 66.976,104.635 L66.976,66.060 ZM84.120,66.060 C84.120,64.855 83.183,63.917 81.977,63.917 L77.691,63.917 C76.486,63.917 75.548,64.855 75.548,66.060 L75.548,104.635 C75.548,105.841 76.486,106.778 77.691,106.778 L81.977,106.778 C83.183,106.778 84.120,105.841 84.120,104.635 L84.120,66.060 ZM101.265,66.060 C101.265,64.855 100.327,63.917 99.122,63.917 L94.836,63.917 C93.630,63.917 92.693,64.855 92.693,66.060 L92.693,104.635 C92.693,105.841 93.630,106.778 94.836,106.778 L99.122,106.778 C100.327,106.778 101.265,105.841 101.265,104.635 L101.265,66.060 ZM109.837,114.547 C109.837,117.762 108.029,119.637 107.694,119.637 L51.974,119.637 C51.640,119.637 49.831,117.762 49.831,114.547 L49.831,51.059 L109.837,51.059 L109.837,114.547 ZM64.833,42.486 L68.114,34.651 C68.315,34.383 68.851,33.981 69.253,33.914 L90.483,33.914 C90.817,33.981 91.420,34.383 91.621,34.651 L94.836,42.486 L64.833,42.486 ZM126.982,44.629 C126.982,43.424 126.044,42.486 124.839,42.486 L104.145,42.486 L99.457,31.302 C98.117,28.021 94.099,25.342 90.550,25.342 L69.119,25.342 C65.569,25.342 61.551,28.021 60.212,31.302 L55.524,42.486 L34.830,42.486 C33.624,42.486 32.687,43.424 32.687,44.629 L32.687,48.916 C32.687,50.121 33.624,51.059 34.830,51.059 L41.259,51.059 L41.259,114.815 C41.259,122.182 46.081,128.209 51.974,128.209 L107.694,128.209 C113.588,128.209 118.409,121.914 118.409,114.547 L118.409,51.059 L124.839,51.059 C126.044,51.059 126.982,50.121 126.982,48.916 L126.982,44.629 Z" class="cls-2"/>
</svg>
