<svg xmlns="http://www.w3.org/2000/svg" xmlns:xlink="http://www.w3.org/1999/xlink" preserveAspectRatio="xMidYMid" width="160" height="160" viewBox="0 0 160 160">
  <defs>
    <style>
      .cls-1 {
        fill: #000;
      }

      .cls-2 {
        fill: #fff;
        fill-rule: evenodd;
      }
    </style>
  </defs>
  <circle cx="80" cy="80" r="80" class="cls-1"/>
  <path d="M113.300,114.329 C131.661,95.968 131.661,66.017 113.300,47.656 C104.749,39.105 93.029,34.244 81.136,33.896 L81.092,26.654 C81.136,25.048 80.137,23.616 78.705,23.051 C77.229,22.444 75.536,22.747 74.408,23.876 L59.961,39.322 C58.442,40.841 58.442,43.359 59.961,44.878 L74.408,60.324 C75.536,61.453 77.229,61.757 78.705,61.149 C80.137,60.585 81.136,59.152 81.092,57.546 L81.136,49.609 C88.949,49.870 96.501,53.082 102.188,58.768 C114.428,71.009 114.428,90.976 102.188,103.217 C89.947,115.457 69.980,115.457 57.739,103.217 C50.838,96.315 47.582,86.809 48.841,77.042 C48.928,76.521 48.711,75.957 48.364,75.523 C47.973,75.132 47.452,74.872 46.888,74.829 L34.951,74.872 C33.996,74.872 33.128,75.653 32.998,76.652 C31.695,90.629 36.687,104.388 46.627,114.329 C64.988,132.690 94.939,132.690 113.300,114.329 Z" class="cls-2"/>
</svg>
